PathFileType	4	(X/Y/Z)	Run_500 03
DataRate	CameraRate	NumFrames	NumMarkers	Units	OrigDataRate	OrigDataStartFrame	OrigNumFrames
100	100	5	45	mm	100	144	137
Frame#	Time	RASI			LPSI			RPSI			RTH1			RTH2			RTH3			LTH1			LTH2			LTH3			RTB1			RTB2			RTB3			RLMAL			RMMAL			LTB1			LTB2			LTB3			RCAL			RTOE			RMT5			LCAL			LTOE			LMT5			LACR			RACR			CLAV			C7			LPSH			RUA1			RUA2			RUA3			RLEL			RMEL			LUA1			LUA2			LUA3			LLEL			LMEL			RFAsuperior			RFAradius			RFAulna			LFAsuperior			LFAradius			LFAulna			LASI		
		X1	Y1	Z1	X2	Y2	Z2	X3	Y3	Z3	X4	Y4	Z4	X5	Y5	Z5	X6	Y6	Z6	X7	Y7	Z7	X8	Y8	Z8	X9	Y9	Z9	X10	Y10	Z10	X11	Y11	Z11	X12	Y12	Z12	X13	Y13	Z13	X14	Y14	Z14	X15	Y15	Z15	X16	Y16	Z16	X17	Y17	Z17	X18	Y18	Z18	X19	Y19	Z19	X20	Y20	Z20	X21	Y21	Z21	X22	Y22	Z22	X23	Y23	Z23	X24	Y24	Z24	X25	Y25	Z25	X26	Y26	Z26	X27	Y27	Z27	X28	Y28	Z28	X29	Y29	Z29	X30	Y30	Z30	X31	Y31	Z31	X32	Y32	Z32	X33	Y33	Z33	X34	Y34	Z34	X35	Y35	Z35	X36	Y36	Z36	X37	Y37	Z37	X38	Y38	Z38	X39	Y39	Z39	X40	Y40	Z40	X41	Y41	Z41	X42	Y42	Z42	X43	Y43	Z43	X44	Y44	Z44	X45	Y45	Z45	

144	  1.440000	939.632914	1077.717037	-225.633516	780.353342	1111.153450	-393.052357	778.311103	1111.001837	-305.872709	966.475011	857.105089	-187.249048	1069.774043	858.747853	-215.701494	1079.305079	739.768880	-223.648582	760.020816	863.746020	-501.782678	778.382705	737.114718	-486.608756	684.468316	672.757075	-471.468466	1148.101062	529.724735	-271.541343	1090.376516	495.212547	-222.757109	1057.083310	369.041912	-261.832808	975.299096	280.095207	-237.645601	1000.099385	287.571161	-318.954133	599.905208	446.832623	-428.848357	470.756434	414.337113	-438.289920	474.900529	299.948336	-398.929691	910.148261	270.881485	-302.138886	1111.510151	177.212642	-270.293834	1040.872810	188.879026	-199.334448	321.551384	266.107560	-337.706016	421.124792	 76.279650	-342.495858	364.475465	 94.023780	-405.528863	915.797858	1574.440446	-502.290895	865.299908	1554.054785	-192.398235	961.265543	1496.598035	-311.514695	854.847088	1586.492854	-352.675767	841.311141	1529.723295	-530.594612	756.679304	1452.362487	-119.143463	675.094246	1434.000235	-164.688888	640.905834	1393.405355	-117.009238	615.122740	1330.275292	-84.868388	605.970233	1318.941134	-176.211331	866.317680	1435.786671	-581.364501	810.041024	1350.279792	-565.522357	846.424970	1303.034376	-611.373246	869.038217	1225.110644	-622.044233	816.468201	1216.689441	-541.802920	653.650514	1262.186602	-93.779317	845.049706	1234.832566	-132.682135	821.503407	1173.542724	-114.958481	936.989478	1218.162245	-550.968728	1020.126230	1348.949911	-469.224999	1056.277152	1290.360668	-463.467058	940.711716	1050.346177	-455.060309	
145	  1.450000	941.239564	1082.151642	-227.285537	783.314392	1117.243395	-394.508275	780.114016	1116.880572	-305.870643	963.040865	858.356321	-187.927087	1067.545788	857.972251	-213.500077	1075.057725	739.349485	-223.239944	756.182411	874.621490	-502.908901	772.430148	745.420074	-488.708420	678.039745	682.831615	-472.265027	1157.251703	526.829998	-267.799827	1103.122157	485.650668	-221.073519	1084.279031	357.132964	-262.246309	1012.793792	258.618745	-240.927380	1038.079008	270.597388	-321.601592	586.805237	458.982973	-429.509671	456.549297	431.749454	-439.519382	455.020829	317.780559	-399.694162	949.973044	244.643805	-306.933580	1159.064423	170.521864	-272.560028	1086.096570	173.151580	-203.042524	305.248173	294.783040	-339.097281	388.558877	 88.890414	-343.158543	330.011524	117.866387	-404.017881	916.188572	1581.519252	-500.019719	863.374717	1558.465368	-192.352328	961.217766	1501.445564	-310.045019	854.597569	1590.209731	-352.312330	842.536546	1535.908157	-529.759105	752.817670	1458.088321	-121.607714	672.447373	1440.031969	-169.781885	636.295540	1400.119312	-123.197737	609.357921	1337.063956	-91.031709	602.079911	1325.893357	-183.294370	871.002842	1442.333623	-580.644710	815.492532	1356.572178	-567.045009	853.352224	1309.216332	-610.597731	877.276621	1231.227824	-619.425863	822.193544	1222.545383	-541.748185	648.878086	1269.786340	-99.815295	841.747218	1245.633047	-135.826036	818.806330	1184.001450	-118.788756	942.149796	1228.329382	-545.321889	1016.701474	1363.770573	-462.669883	1054.403656	1306.571176	-454.065304	942.918249	1055.809235	-455.615681	
146	  1.460000	942.296924	1084.647254	-229.271903	785.002522	1121.922942	-395.306815	781.342881	1121.184842	-305.422248	958.084468	856.706292	-188.779727	1063.849982	854.353205	-211.372528	1068.723090	735.877509	-222.462512	754.235611	882.873066	-504.356194	770.638238	751.383047	-490.191021	675.983237	688.870040	-473.535811	1163.497332	522.053431	-264.150090	1113.925448	474.265319	-219.658138	1109.462416	345.495602	-263.074829	1049.260267	238.850462	-244.587829	1074.462816	255.660503	-324.479168	576.497020	468.443305	-429.810562	444.699868	449.089506	-440.139441	435.809089	336.363297	-398.983249	988.880138	221.886366	-312.233250	1203.389324	165.045081	-275.758091	1128.851071	157.798691	-208.532410	286.072954	324.057337	-339.488426	355.985027	109.062770	-340.414579	298.304839	144.503741	-401.225213	916.594912	1587.615812	-497.821364	862.369245	1562.066973	-191.676291	961.358386	1505.549808	-308.764905	854.623526	1593.512060	-351.388840	843.627390	1541.340833	-528.618522	749.890293	1462.521722	-123.560853	670.711688	1444.920855	-174.409942	632.723276	1405.509133	-129.088812	604.612450	1342.607432	-97.134620	599.361900	1331.477661	-190.125760	875.371886	1447.697078	-580.044918	820.658944	1361.421177	-569.047634	860.241543	1314.245217	-610.426200	884.843074	1236.633262	-617.488726	826.817119	1227.577276	-542.219828	645.053334	1276.036895	-105.601547	839.322843	1254.546983	-138.366959	816.876887	1192.761733	-121.842368	946.629789	1237.130849	-541.227872	1013.459806	1375.696691	-457.099833	1052.128468	1319.658696	-446.183769	943.760038	1060.768147	-457.488847	
147	  1.470000	942.910442	1085.792714	-231.233827	785.569421	1125.035472	-395.627929	782.280508	1123.676440	-305.360043	952.704824	853.318362	-189.599309	1059.257854	848.406976	-209.160648	1060.456303	729.760073	-220.999356	755.109929	887.207202	-505.928583	772.097748	754.950663	-490.632234	677.078708	691.866777	-474.928955	1166.743820	515.675968	-261.704548	1122.515201	461.912859	-218.875889	1131.926411	334.574538	-264.540093	1083.368877	221.438547	-248.322760	1107.634136	243.052765	-327.417647	568.403156	476.033675	-430.252515	435.049483	466.497362	-440.164428	418.049406	355.455234	-397.722742	1025.056133	202.840785	-317.000826	1243.437179	161.404232	-280.682066	1168.783705	143.758724	-215.543215	266.334641	354.182890	-339.195357	323.894209	135.584577	-335.560996	269.109334	172.914136	-397.853357	917.286125	1592.611507	-495.632869	862.173580	1565.012021	-190.502792	961.608574	1509.011192	-307.505813	855.052756	1596.725422	-349.788638	844.805763	1546.039782	-527.149450	748.001434	1465.727889	-124.953420	669.969817	1448.866893	-178.282873	630.439864	1409.547190	-134.470996	601.155181	1346.775633	-103.092083	598.141949	1335.635398	-196.449890	879.071869	1452.229177	-579.147730	825.105266	1365.187292	-570.801842	866.560371	1318.540182	-610.539191	891.422070	1241.464386	-616.475531	830.385180	1231.811063	-543.124857	642.405163	1280.658099	-111.011599	838.007771	1261.409973	-140.121010	815.907364	1199.556153	-123.980087	950.435422	1244.404039	-538.743469	1010.850604	1384.585647	-452.332964	1050.073188	1329.394007	-439.928869	943.899608	1065.124416	-459.845446	
148	  1.480000	943.158995	1086.299911	-232.865640	785.291265	1126.714009	-395.804827	782.710563	1124.528200	-305.880534	947.907301	849.653670	-189.978964	1054.388153	840.629598	-206.357756	1050.545203	721.675225	-218.940436	758.438108	887.894051	-507.314489	775.215061	756.564985	-490.310486	680.088954	692.909798	-475.957570	1167.064331	508.049161	-261.069217	1128.525547	449.570602	-218.949822	1150.666393	324.763104	-266.765623	1113.319693	206.895150	-251.936155	1135.623710	232.806125	-330.410829	562.647349	482.348081	-430.873382	428.338566	483.988933	-439.768998	402.785809	374.968241	-396.836943	1056.467560	186.988871	-320.553871	1277.654042	160.417414	-287.786649	1204.992041	132.762240	-223.373467	249.643455	385.429459	-338.402824	293.667949	165.182056	-331.902580	241.977197	203.567347	-395.217995	918.338826	1596.519307	-493.366540	862.619646	1567.347962	-189.139473	962.008141	1511.637996	-306.164101	855.940983	1599.700213	-347.692033	846.100266	1550.055603	-525.412454	747.088076	1467.744758	-125.830510	670.122271	1451.869064	-181.172829	629.492179	1412.094153	-139.116607	599.181327	1349.347078	-108.668681	598.513646	1338.310988	-202.103433	881.814603	1456.282071	-577.822272	828.494875	1368.509411	-571.988564	871.619022	1322.596243	-610.841027	896.520427	1245.920919	-616.576769	833.048505	1235.446912	-544.658365	641.114508	1283.466837	-115.771211	837.957160	1266.177035	-140.979650	816.022889	1204.275739	-125.093710	953.303931	1249.917014	-537.684533	1009.263075	1390.349037	-448.420260	1048.702035	1335.567225	-435.430029	943.853036	1068.870717	-461.974522	
